<svg xmlns="http://www.w3.org/2000/svg" viewBox="0 0 800 600"><rect width="800" height="600" fill="#1c1c20"/><g fill="none" stroke="#3a3a42" stroke-width="10" stroke-linecap="round" stroke-linejoin="round" transform="translate(290 190) scale(0.5)"><path d="M75 190 V372 Q75 408 111 408 H314 Q350 408 350 372 V275"/><path d="M350 170 V40 Q350 4 314 4 H111 Q75 4 75 40 V130"/><path d="M138 330 V196 L100 158 L52 160 L38 148"/><path d="M172 330 V140"/><path d="M207 330 V237 L272 170 V135"/><path d="M242 365 V257 L290 209 H320 L405 124"/><path d="M279 365 V283 L314 247 H380"/><circle cx="23" cy="138" r="13"/><circle cx="172" cy="122" r="16"/><circle cx="272" cy="117" r="16"/><circle cx="418" cy="110" r="14"/><circle cx="397" cy="247" r="16"/></g><text x="400" y="470" fill="#71717a" font-family="sans-serif" font-size="26" text-anchor="middle" letter-spacing="4">PHOTO COMING SOON</text></svg>
